
		<svg width="3265.050993346882" height="1825.0861429952683" xmlns="http://www.w3.org/2000/svg" xmlns:xlink="http://www.w3.org/1999/xlink" version="1.1">
            <g transform="scale(13.252549667344098) translate(10, 10)">
				<defs id="SvgjsDefs1002"/><g id="main_text" rel="mainfill" name="main_text" xmlns:name="mainText_mainfill" fill="#1b9869" transform="translate(85.85512102828528, -38.73947467803956)"><path d="M10.977 40.0785 q0.8203125 0 2.1484375 4.7265625 q1.9921875 2.03125 3.1640625 21.2890625 q0 0.1953125 -0.1953125 0.1953125 l0.19531 1.9922 l0 3.9453 q0 7.890625 -2.1484375 18.3203125 l0.39063 0.19531 q0.1953125 0 0.1953125 -0.1953125 q8.75 0.390625 37.8515625 12.8125 q5.859375 2.7734375 15.390625 6.1328125 q9.1796875 3.359375 18.125 3.359375 l0.58594 0 q10.9765625 0 22.0703125 -6.5234375 l3.5547 -2.5781 q1.484375 0 4.7265625 4.9609375 l4.375 5.8984 q0 0.234375 1.5625 1.9921875 l0 0.19531 q0 1.640625 -2.3828125 2.5390625 q-2.9296875 2.6953125 -7.265625 4.140625 q0 0.8984375 -7.5 2.1875 q-2.65625 0.6640625 -3.5546875 1.171875 q-0.1953125 0 -0.1953125 -0.1953125 q-0.1953125 0 -0.1953125 0.1953125 q-0.5859375 0 -0.5859375 -0.1953125 q-1.9921875 0.1953125 -2.96875 0.1953125 l-3.9453 0 q-15.5078125 -1.1328125 -21.875 -3.75 q-6.953125 -1.9140625 -16.7578125 -7.3046875 q-5.2734375 -2.5390625 -12.6171875 -7.0703125 q-4.1015625 -3.6328125 -18.1640625 -9.1015625 q-11.875 -3.9453125 -18.7109375 -3.9453125 l-0.39063 0 q-0.1953125 0 -0.1953125 -0.1953125 l-0.42969 0.19531 l-0.97656 0 q-1.1328125 0 -3.9453125 0.4296875 q-0.8984375 -0.390625 -0.9765625 -0.8203125 q0 -1.0546875 3.359375 -10.8203125 q3.9453125 -15.0390625 3.9453125 -24.84375 l0 -4.3359 q0 -0.703125 -0.1953125 -1.796875 q0.1953125 -0.3125 0.1953125 -0.9765625 l-0.58594 -3.5547 l0.19531 0 q-0.5859375 -3.125 -1.6015625 -6.9140625 l0 -0.39063 q0 -0.9765625 6.328125 -1.5625 z M8.7891 41.8355 q2.1875 4.921875 2.1875 5.9375 q0.7421875 1.171875 0.9765625 1.171875 l0 -0.39063 q-1.0546875 -3.7109375 -2.7734375 -6.71875 l-0.39063 0 z M13.32 60.5855 l0 2.3828 l0.19531 0 l0 -2.3828 l-0.19531 0 z M13.711 68.0855 l-0.19531 1.3672 l0.19531 1.1719 l0.23438 0 l0 -2.5391 l-0.23438 0 z M10 79.7265 q0 0.8203125 -0.1953125 2.1484375 l0 0.19531 l0.19531 0 q0.390625 -1.5625 0.390625 -2.34375 l-0.39063 0 z M7.0313 87.8125 l-2.3828 5.5078 l1.2109 0 q0.625 0 1.3671875 -5.3125 l0 -0.19531 l-0.19531 0 z M11.367 93.125 q0.8203125 0 4.3359375 0.5859375 l0.39063 -0.19531 l10.469 2.5781 l0.19531 0 l0 -0.19531 q-3.046875 -1.40625 -14.609375 -3.1640625 l0 -0.19531 q-0.78125 0.2734375 -0.78125 0.5859375 z M29.102 96.67969 q1.7578125 0.9765625 10.859375 4.53125 q2.03125 1.484375 8.671875 3.5546875 l0 -0.39063 q-1.9140625 -0.625 -11.8359375 -4.9609375 q-5.625 -2.1875 -7.6953125 -2.734375 z M114.88 109.8825 q0 0.1953125 -0.1953125 0.1953125 l0.19531 0.39063 l0 0.19531 l-0.39063 -0.19531 l0 0.19531 q0 0.390625 1.3671875 0.5859375 q-0.390625 -1.2109375 -0.9765625 -1.3671875 z M65.586 114.2185 l0 0.19531 q0.1953125 0 0.5859375 0.1953125 l0.39063 0 l0 -0.19531 q-0.4296875 0 -0.78125 -0.1953125 l-0.19531 0 z M78.984 115.1955 l0 0.19531 l0.78125 0.19531 q0 -0.390625 -0.5859375 -0.390625 l-0.19531 0 z M81.563 115.1955 l0 0.19531 l1.1719 0 l0 -0.19531 l-1.1719 0 z M87.656 117.1875 l0 0.19531 l0.82031 0 l0 -0.19531 l-0.82031 0 z M88.672 117.1875 l0 0.19531 l0.78125 0 l0 -0.19531 l-0.78125 0 z M86.484 117.3825 l0 0.19531 l0.78125 0 l0 -0.19531 l-0.78125 0 z M111.13 118.9455 q0 0.78125 -0.9765625 0.78125 q-0.390625 -0.1953125 -0.5859375 -0.1953125 q0 0.390625 0.5859375 0.390625 q1.5625 -0.1171875 1.5625 -0.5859375 q-0.1953125 0 -0.1953125 -0.1953125 q0.1953125 0 0.1953125 -0.1953125 l-0.58594 0 z M107.97 120.3125 l0.58594 0 l1.0156 -0.19531 l0 -0.19531 l-1.2109 0 q-0.390625 0.078125 -0.390625 0.390625 z M104.41 120.7425 l-0.19531 0.39063 l0.19531 0 l1.0156 -0.19531 l0 -0.19531 l-1.0156 0 z M48.71125 49.1795 q6.0546875 0 8.359375 5.3125 q0 6.40625 -5.5078125 9.765625 q-3.203125 3.0859375 -17.5 8.359375 l0 0.19531 q0 4.3359375 6.5234375 5.5078125 q4.6875 -1.25 4.6875 -3.671875 q1.1328125 -1.484375 1.2109375 -2.65625 l0 -0.625 l-0.19531 -2.4219 l0.58594 -0.42969 l0.625 0 q5.6640625 1.8359375 11.015625 7.7734375 l0 0.39063 q-3.203125 7.2265625 -9.5703125 10.1953125 q-3.984375 1.2109375 -4.6875 1.2109375 q-8.359375 0 -10.5859375 -1.640625 q-1.6015625 0 -4.6875 -3.671875 q-2.4609375 -4.609375 -2.4609375 -7.5390625 l0 -1.4063 q0 -7.6953125 5.3125 -15.46875 q8.4765625 -9.1796875 16.875 -9.1796875 z M43.43725 53.4765 l0.19531 0 q1.5234375 -0.4296875 2.03125 -0.4296875 l0 -0.19531 l-1.2109 0 q-1.015625 0.15625 -1.015625 0.625 z M49.14025 52.8515 l0 0.39063 q2.421875 1.40625 2.421875 3.4765625 l0 1.2109 l0.23438 0 q1.6015625 -1.875 1.6015625 -3.671875 l0 -0.19531 q0 -0.390625 -0.390625 -0.390625 l-0.625 0.39063 l-0.19531 0 l-2.6563 -1.2109 l-0.39063 0 z M37.10925 64.45349999999999 l0 0.42969 q6.640625 -2.1875 11.015625 -6.328125 l0.39063 -1.4453 l0 -0.19531 q0 -0.2734375 -0.5859375 -0.5859375 l-1.4453 0 q-2.4609375 0 -6.5234375 3.8671875 q0 0.4296875 -2.8515625 4.2578125 z M32.61715 65.6645 l0 0.42969 l0.42969 0 q3.1640625 -5.8203125 4.2578125 -7.34375 q0.234375 0 0.234375 -0.390625 l-0.23438 0 q-2.34375 0.859375 -3.046875 2.8515625 q-1.640625 3.3984375 -1.640625 4.453125 z M32.22655 67.9295 l-0.19531 1.4063 l0.39063 0.19531 l1.0156 -0.19531 l0 -0.19531 q-0.8203125 0 -1.015625 -1.2109375 l-0.19531 0 z M50.35125 72.8125 l0 1.0156 l-0.19531 1.0156 q0.46875 0 1.2109375 1.2109375 q0.2734375 0 1.2109375 -1.6015625 q-0.15625 -0.546875 -2.03125 -1.640625 l-0.19531 0 z M29.57035 73.82849999999999 l0 0.19531 q0.3515625 1.25 0.8203125 5.1171875 q0.7421875 1.25 2.4609375 2.03125 q0.78125 1.953125 4.6875 3.2421875 q0.390625 0.1953125 0.5859375 0.1953125 q-5.546875 -3.28125 -6.2890625 -5.703125 q-0.5078125 0 -2.0703125 -5.078125 l-0.19531 0 z M54.023250000000004 76.0545 q1.015625 0.546875 1.015625 1.640625 q0 0.2734375 -2.8515625 3.671875 l0 0.19531 q3.125 -2.65625 3.671875 -4.8828125 l-1.4453 -1.0156 q-0.390625 0.078125 -0.390625 0.390625 z M35.07815 79.3355 l0 0.19531 q0 1.09375 3.046875 2.65625 l0 -1.0156 q0 -0.234375 -3.046875 -1.8359375 z M51.36725 82.1875 l0.19531 0 q0.4296875 0 0.4296875 -0.4296875 l0 -0.19531 q-0.3125 0 -0.625 0.625 z M40.97625 82.7735 l0 0.23438 l1.25 0 l0 -0.23438 l-1.25 0 z M86.601125 49.1795 q5.3515625 0.625 6.8359375 2.1484375 q5.5078125 4.921875 5.5078125 12.1484375 l0 1.5625 q0 7.5 -6.484375 17.03125 q-4.5703125 4.5703125 -8.59375 5.46875 q-0.7421875 0.78125 -3.3203125 0.78125 q-6.484375 0 -6.484375 -1.3671875 q-2.6171875 -1.015625 -5.078125 -4.6875 q-2.5390625 -5.3515625 -2.5390625 -10.5859375 q0 -13.8671875 13.7109375 -21.5234375 q2.9296875 -0.9765625 6.4453125 -0.9765625 z M87.773125 52.1095 l0 0.19531 q2.3828125 0 5.859375 4.6875 q1.5625 3.359375 1.5625 10.5859375 l-0.19531 2.3438 l0 0.19531 l0.19531 0 q0.8203125 -3.828125 1.015625 -6.25 l-1.2109 -5.8984 q0 -0.2734375 -2.9296875 -3.7109375 q0 -1.6015625 -4.1015625 -2.1484375 l-0.19531 0 z M83.281125 54.0625 l0 0.19531 l0.78125 0.19531 q0 -0.390625 -0.5859375 -0.390625 l-0.19531 0 z M75.625025 56.6015 l0 0.19531 q1.3671875 -1.015625 2.3828125 -1.3671875 l0 -0.39063 l-0.19531 0 q-1.9921875 0.9765625 -2.1875 1.5625 z M89.336125 56.0155 q2.734375 2.1875 2.734375 13.125 q0 2.421875 -2.5390625 7.8125 q1.796875 0 3.515625 -11.1328125 l0 -1.7578 q-0.4296875 -8.046875 -3.515625 -8.046875 l-0.19531 0 z M72.695325 72.4605 q0 3.125 2.1484375 5.6640625 q2.109375 1.796875 3.5546875 1.796875 l0.19531 0 q5.078125 -0.859375 5.078125 -1.9921875 q2.03125 -1.6015625 3.3203125 -5.6640625 l0 -0.39063 l-0.19531 -0.78125 q0.9765625 -3.3203125 0.9765625 -4.6875 l0 -0.58594 q-1.25 -7.0703125 -3.125 -7.0703125 q-0.390625 -0.8203125 -2.734375 -1.3671875 q-5.5859375 0 -8.6328125 9.21875 q-0.390625 1.0546875 -0.5859375 5.859375 z M73.476525 58.9455 q0 0.234375 -0.1953125 0.625 l0.19531 0 l0.19531 -0.39063 l0 -0.23438 l-0.19531 0 z M69.765625 69.1405 q0 0.15625 -0.1953125 1.5625 l0.39063 0.19531 l0 -1.7578 l-0.19531 0 z M88.359125 78.7495 l0 0.19531 q0.390625 0 0.390625 -0.4296875 l0 -0.19531 q-0.390625 0.078125 -0.390625 0.4296875 z M89.141125 81.2895 l0 0.19531 q0.3125 0 2.1484375 -2.5390625 l0 -0.19531 q-0.46875 0.1953125 -2.1484375 2.5390625 z M78.984125 82.6565 l-0.78125 0 q-1.015625 0 -2.3828125 -0.390625 q0 0.2734375 2.1875 1.171875 q1.9921875 -0.1953125 3.125 -0.1953125 l0.19531 0 q0.546875 -0.9765625 2.734375 -1.5625 l0.19531 -0.39063 l-0.19531 0 q-1.3671875 0.78125 -5.078125 1.3671875 z M112.8905875 47.2655 l1.3672 0 q4.4140625 3.515625 5.078125 3.515625 q3.0078125 -1.5625 6.4453125 -1.5625 l0.58594 0 q8.6328125 0 11.5234375 8.7890625 q0.5859375 2.5 0.5859375 5.46875 l0 2.7344 q-2.5390625 16.484375 -4.8828125 20.8984375 q-0.8203125 1.3671875 -1.171875 1.3671875 l-0.78125 0 q-2.1875 -1.640625 -3.90625 -1.953125 l-0.39063 -0.58594 l0 -0.39063 q1.9921875 -6.328125 3.3203125 -16.6015625 l0.19531 -1.1719 q0 -7.6171875 -4.296875 -7.6171875 l-0.58594 0 q-3.4375 0.9765625 -5.2734375 3.515625 q-2.2265625 2.1875 -4.1015625 8.7890625 q-1.7578125 7.7734375 -1.7578125 14.0625 q0 0.8984375 -2.734375 1.5625 q-0.1953125 0 -0.1953125 -0.1953125 l-0.97656 0.19531 l-1.1719 0 q-2.5390625 0 -2.5390625 -1.7578125 q0 -0.78125 -0.390625 -2.9296875 q0 -0.1953125 0.1953125 -0.5859375 q-0.2734375 -3.125 -0.390625 -3.515625 l0.19531 -0.39063 q0 -0.8203125 -0.1953125 -2.1484375 q0 -11.6015625 3.515625 -24.4140625 q1.875 -4.8828125 2.5390625 -4.8828125 q0 -0.1953125 0.1953125 -0.1953125 z M116.7971875 52.7345 q-1.5625 4.375 -1.5625 4.8828125 l0 0.58594 l0.19531 0 q1.171875 -4.2578125 2.1484375 -5.078125 q0 -0.390625 -0.390625 -0.390625 l-0.39063 0 z M118.3591875 56.4455 l0 0.39063 l0.19531 0 q3.046875 -2.4609375 5.6640625 -3.125 l0.39063 -0.78125 l-0.39063 0 q-2.1484375 0 -5.859375 3.515625 z M126.75818749999999 54.4925 l0 0.39063 q7.8125 0.8984375 7.8125 5.859375 q0.390625 0 0.390625 0.5859375 l0.58594 0 l0 -0.19531 q-0.5859375 -4.296875 -2.1484375 -4.296875 q0 -1.5234375 -4.6875 -2.34375 q0 -0.1953125 -0.5859375 -0.1953125 z M123.63318749999999 57.4215 l0.19531 0 l1.1719 -0.19531 q1.71875 0.1953125 2.9296875 0.1953125 l0 -0.39063 q-2.3046875 -0.1953125 -3.3203125 -0.1953125 l-0.39063 0 q-0.2734375 0 -0.5859375 0.5859375 z M129.6871875 57.6175 q0 0.2734375 0.5859375 0.5859375 l0.19531 0 q0 -0.2734375 -0.5859375 -0.5859375 l-0.19531 0 z M111.7187875 62.4995 l-0.78125 3.9063 l0.39063 0 l0.58594 -3.7109 l0 -0.19531 l-0.19531 0 z M115.6249875 64.45349999999999 l0 0.58594 q0.390625 0 0.390625 -0.390625 l0 -0.19531 l-0.39063 0 z M133.3981875 69.5315 q-0.5859375 5 -2.734375 13.671875 l0.39063 0 q2.734375 -8.59375 2.734375 -13.671875 l-0.39063 0 z M109.5702875 72.6565 l0 1.1719 l0.19531 0 q0 -0.15625 0.1953125 -1.171875 l-0.39063 0 z M109.5702875 81.2495 l0 1.3672 l0.39063 0 l0 -0.39063 l0.19531 -1.3672 l-0.19531 0 q-0.390625 0.078125 -0.390625 0.390625 z M109.9609875 84.1795 l0 0.19531 q0.3515625 1.3671875 1.3671875 1.3671875 l0.97656 0 l0 -0.97656 l-0.39063 0 q-0.9375 0 -1.953125 -0.5859375 z"/></g><g id="slogan_text" rel="mainfill" name="slogan_text" xmlns:name="sloganText_mainfill" fill="#1b9869" transform="translate(84.65152723775412, 92.15682516098022)"><path d="M10.86 10.3 c0 -2.44 -1.44 -3.04 -3.46 -3.04 c-2.1 0 -5.26 1.82 -5.26 6 c0 4.1 2.78 6.04 4.84 6.04 c1.9 0 3.1 -0.56 3.98 -2.2 c0.56 0 0.9 0.42 0.9 0.98 c0 1.5 -2.38 2.26 -4.78 2.26 c-2.68 0 -6.54 -1.8 -6.54 -7.02 c0 -5.36 4.08 -7.1 6.9 -7.1 s4.64 0.78 4.64 2.46 c0 1.16 -0.66 1.64 -1.06 1.64 c-0.06 0 -0.12 0 -0.16 -0.02 z  M15.14 15.280000000000001 c0 2.06 0.94 4.14 3.56 4.14 c2.5 0 3.44 -2.08 3.44 -4.14 s-0.72 -4.28 -3.44 -4.28 c-2.74 0 -3.56 2.34 -3.56 4.28 z M13.78 15.280000000000001 c0 -2.42 1.08 -5.2 4.92 -5.2 c3.7 0 4.78 2.78 4.78 5.2 c0 2.38 -1.22 5.06 -4.78 5.06 c-3.54 0 -4.92 -2.68 -4.92 -5.06 z M34.46 7.539999999999999 l0 10.64 c0 0.7 0.34 1.3 1.02 1.3 l0.6 0 l0 0.52 l-1.48 0 c-0.7 0 -1.52 -0.48 -1.52 -1.6 l0 -3.76 c0 -2 -1.02 -3.44 -3.04 -3.44 c-2.16 0 -3.3 2.08 -3.3 4.2 s1.22 3.98 3.1 3.98 c1.14 0 1.8 -0.66 1.9 -0.78 c0 0 0.3 0.34 0.3 0.64 c0 0.92 -1.74 0.98 -2.34 0.98 c-2.54 0 -4.38 -2.18 -4.38 -4.86 c0 -2.3 1.22 -5.02 4.72 -5.02 c1.32 0 2.56 0.54 3.04 1.36 l0 -4.02 c0 -0.5 -0.04 -1.22 -1.04 -1.22 l-0.52 0 l0 -0.52 l1.52 0 c1.08 0 1.42 0.54 1.42 1.6 z M40.66 7.279999999999999 c0 0.52 -0.44 0.8 -0.98 0.8 c-0.5 0 -0.96 -0.3 -0.96 -0.8 c0 -0.54 0.44 -0.84 0.96 -0.84 c0.58 0 0.98 0.3 0.98 0.84 z M41.48 19.5 l0.48 0 l0 0.52 l-4.44 0 l0 -0.52 l0.48 0 c0.46 0 1.08 -0.3 1.08 -1.1 l0 -6.26 c0 -0.66 -0.32 -1.04 -1.02 -1.04 l-0.48 0 l0 -0.52 l1.38 0 c1.14 0 1.44 0.58 1.44 1.56 l0 6.26 c0 0.74 0.62 1.1 1.08 1.1 z M53.599999999999994 19.48 l0.28 0 l0 0.52 l-1.28 0 c-1.08 0 -1.52 -0.84 -1.52 -1.78 l0 -4.22 c0 -2.04 -0.88 -2.84 -2.34 -2.84 c-1.72 0 -3.08 1.52 -3.08 4.04 l0 3.28 c0 0.48 0.22 1 0.78 1 l0.4 0 l0 0.52 l-3.94 0 l0 -0.52 l0.52 0 c0.38 0 0.92 -0.32 0.92 -0.88 l0 -6.48 c0 -0.46 -0.14 -1.08 -0.98 -1.08 l-0.46 0 l0 -0.48 l1.32 0 c1.16 0 1.38 0.68 1.38 1.46 c0.5 -0.86 1.7 -1.82 3.34 -1.82 c2.4 0 3.48 1.44 3.48 3.34 l0 4.66 c0 0.48 0.24 1.28 1.18 1.28 z M64.14 10.56 l1.5 0 l0 0.52 l-0.46 0 c-0.82 0 -1.14 0.34 -1.14 1.48 l0 7.02 c0 2.46 -1.38 4.6 -4.3 4.6 c-2.7 0 -3.64 -1.18 -3.64 -1.88 c0 -1.02 1.06 -1.08 1.06 -1.08 c0 0.92 0.84 2.06 2.58 2.06 c1.96 0 3 -1.54 3 -3.58 l0 -4.82 c0 -1.98 -1.06 -3.5 -3.1 -3.5 c-2.28 0 -3.28 1.92 -3.28 3.96 c0 2.32 1.62 3.66 3.02 3.66 c0.52 0 1.2 -0.04 1.82 -0.62 c0 0 0.4 0.12 0.4 0.58 c0 0.54 -0.62 0.96 -2.18 0.96 c-2.46 0 -4.48 -1.92 -4.48 -4.62 c0 -2.56 1.58 -4.82 4.72 -4.82 c1.48 0 2.62 0.64 3.08 1.46 l0 -0.24 c0 -0.86 0.58 -1.14 1.4 -1.14 z  M75.92 8.18 l0 4.32 l3.82 0 c0.56 0 1.2 0.2 1.2 0.76 c0 0.58 -0.66 1.4 -1.2 1.4 c0 -0.54 -0.64 -1.14 -1.44 -1.14 l-2.38 0 l0 4.78 c0 0.48 0.38 1.1 1.36 1.1 l0.64 0 l0 0.6 l-5.06 0 l0 -0.6 l0.56 0 c0.74 0 1.04 -0.52 1.04 -0.88 l0 -10.54 c0 -0.36 -0.14 -0.94 -0.96 -0.94 l-0.62 0 l0 -0.58 l2.84 0 c0.98 0 3.58 -0.22 4.6 -0.22 c2.2 0 2.72 0.62 2.74 2 c0 0.74 -0.38 1.56 -1.2 1.56 c0 -1.8 -0.64 -2.62 -2.9 -2.62 c-1.3 0 -3.04 0.14 -3.04 1 z M92.34 19.48 l0.3 0 l0 0.52 l-1.02 0 c-1.6 0 -1.64 -1.1 -1.64 -1.66 l0 -3.06 l-1.3 0 c-2.46 0 -3.86 0.56 -3.86 2.18 c0 1.3 1.02 1.86 1.88 1.86 c1.34 0 1.9 -0.9 1.9 -0.9 c0.08 0 0.42 0.26 0.42 0.56 c0 0.42 -0.2 1.16 -2.38 1.16 c-1.24 0 -3.22 -0.68 -3.22 -2.7 c0 -2.46 2.36 -3.02 5.28 -3.02 l1.28 0 l0 -0.94 c0 -0.9 -0.04 -2.56 -2.26 -2.56 c-1.96 0 -2.52 1.34 -2.52 2.3 c0 0 -0.98 -0.02 -0.98 -1.06 c0 -1.22 1.5 -2.1 3.5 -2.1 c2.2 0 3.6 0.84 3.6 3.42 l0 4.5 c0 0.94 0.26 1.5 1.02 1.5 z M104.14 19.48 l0.28 0 l0 0.52 l-1.28 0 c-1.08 0 -1.52 -0.84 -1.52 -1.78 l0 -4.22 c0 -2.04 -0.88 -2.84 -2.34 -2.84 c-1.72 0 -3.08 1.52 -3.08 4.04 l0 3.28 c0 0.48 0.22 1 0.78 1 l0.4 0 l0 0.52 l-3.94 0 l0 -0.52 l0.52 0 c0.38 0 0.92 -0.32 0.92 -0.88 l0 -6.48 c0 -0.46 -0.14 -1.08 -0.98 -1.08 l-0.46 0 l0 -0.48 l1.32 0 c1.16 0 1.38 0.68 1.38 1.46 c0.5 -0.86 1.7 -1.82 3.34 -1.82 c2.4 0 3.48 1.44 3.48 3.34 l0 4.66 c0 0.48 0.24 1.28 1.18 1.28 z M110.5 17.98 c0 0 0.7 0.04 0.7 0.78 c0 0.72 -0.86 1.46 -2.2 1.46 c-1.28 0 -2.44 -0.82 -2.44 -3.12 l0 -5.8 l-1.44 0 l0 -0.74 c1.1 0 1.92 -0.28 1.96 -1.84 l0.8 0 l0 1.84 c2.34 0 2.66 -0.46 2.66 -0.68 c0.34 0.06 0.6 0.24 0.6 0.6 c0 0.48 -0.46 0.82 -1.32 0.82 l-1.94 0 l0 5.8 c0 1.12 0.22 2.22 1.26 2.22 c1.1 0 1.36 -1.34 1.36 -1.34 z M121.3 19.48 l0.3 0 l0 0.52 l-1.02 0 c-1.6 0 -1.64 -1.1 -1.64 -1.66 l0 -3.06 l-1.3 0 c-2.46 0 -3.86 0.56 -3.86 2.18 c0 1.3 1.02 1.86 1.88 1.86 c1.34 0 1.9 -0.9 1.9 -0.9 c0.08 0 0.42 0.26 0.42 0.56 c0 0.42 -0.2 1.16 -2.38 1.16 c-1.24 0 -3.22 -0.68 -3.22 -2.7 c0 -2.46 2.36 -3.02 5.28 -3.02 l1.28 0 l0 -0.94 c0 -0.9 -0.04 -2.56 -2.26 -2.56 c-1.96 0 -2.52 1.34 -2.52 2.3 c0 0 -0.98 -0.02 -0.98 -1.06 c0 -1.22 1.5 -2.1 3.5 -2.1 c2.2 0 3.6 0.84 3.6 3.42 l0 4.5 c0 0.94 0.26 1.5 1.02 1.5 z M129.02 17.94 c0 -2.8 -6.12 -1.7 -6.12 -5.22 c0 -1.3 1.28 -2.58 3.74 -2.58 c2.48 0 3.36 0.96 3.36 2.02 s-0.86 1.18 -1.06 1.18 c0 -1.8 -1.02 -2.32 -2.3 -2.32 c-1.3 0 -2.42 0.54 -2.42 1.52 c0 2.7 6.14 1.88 6.14 5.04 c0 1.78 -1.64 2.78 -3.84 2.78 c-2.02 0 -3.78 -0.88 -3.78 -1.88 c0 -0.88 1 -0.9 1 -0.9 s0.56 1.86 2.88 1.86 c1.64 0 2.4 -0.86 2.4 -1.5 z M137.58 10.56 l4.14 0 l0 0.52 c-0.54 0 -1.04 0.28 -1.36 1.3 c-0.38 1.2 -1.42 4.18 -2.68 7.72 c-0.78 2.22 -1.78 4.12 -3.68 4.12 c-1.6 0 -2.22 -0.94 -2.22 -1.68 c0 -0.98 1.1 -1.12 1.1 -1.12 c0 0.78 0.14 1.96 1.26 1.96 c1.36 0 1.96 -2.4 2.34 -3.38 c-0.68 0 -1.3 -0.54 -1.68 -1.38 c-0.7 -1.56 -1.58 -4.28 -2.24 -6.04 c-0.24 -0.64 -0.58 -1.5 -1.5 -1.5 c0 -0.38 0.5 -0.64 1.06 -0.64 c0.9 0 1.24 0.5 1.54 1.28 c0.4 1.06 1.84 5.58 2.24 6.52 c0.3 0.72 0.64 0.88 0.88 0.94 c0.84 -2.26 2.36 -6.6 2.36 -7.4 c0 -0.44 -0.28 -0.7 -1.56 -0.7 l0 -0.52 z"/></g><g id="SvgjsG1010" rel="mainfill" name="symbol" xmlns:name="symbol_mainfill" fill="#1b9869" transform="translate(-33.057652755342986, -10.4440313023059) scale(1.3738530620066065)"><g xmlns="http://www.w3.org/2000/svg"><g><path d="M50.467,8.649l-0.566-0.69c-0.016-0.022-0.031-0.044-0.052-0.062l-0.242-0.295l-0.241,0.294    c-0.022,0.02-0.038,0.043-0.055,0.067l-0.563,0.687C30.64,30.283,24.062,47.821,28.544,62.312    c3.623,11.626,16.015,13.726,19.92,14.009v15.821c0,0.666,0.478,1.143,1.143,1.143c0.666,0,1.141-0.477,1.141-1.143V76.32    c3.908-0.382,16.298-2.383,19.922-14.009C75.153,47.821,68.575,30.288,50.467,8.649z M49.607,37.127    c0.858,0,1.555,0.697,1.555,1.555c0,0.856-0.697,1.554-1.555,1.554c-0.857,0-1.555-0.697-1.555-1.554    C48.052,37.824,48.75,37.127,49.607,37.127z M49.607,60.908c0.924,0,1.674,0.751,1.674,1.675c0,0.797-0.56,1.463-1.308,1.631    c-0.118,0.026-0.24,0.043-0.366,0.043c-0.126,0-0.249-0.017-0.367-0.043c-0.747-0.168-1.308-0.834-1.308-1.631    C47.933,61.659,48.684,60.908,49.607,60.908z M69.163,58.463h-3.726l-4.384-4.385c-0.068-0.068-0.164-0.107-0.261-0.107h-1.286    c-0.174-0.944-0.999-1.665-1.994-1.665c-1.119,0-2.031,0.912-2.031,2.031c0,1.12,0.912,2.032,2.031,2.032    c0.994,0,1.82-0.72,1.994-1.665h1.135l4.385,4.385c0.068,0.068,0.163,0.107,0.26,0.107h3.735c-0.177,0.826-0.389,1.642-0.64,2.445    c-3.103,10.15-13.698,12.049-17.47,12.377c-0.051,0.005-0.102,0.008-0.153,0.013l-0.011,0.002    c-0.256,0.022-0.515,0.031-0.775,0.036v-2.977l3.402-3.403h2.028c0.174,0.945,1.001,1.665,1.994,1.665    c1.122,0,2.031-0.911,2.031-2.032c0-1.12-0.909-2.031-2.031-2.031c-0.994,0-1.82,0.72-1.994,1.665h-2.18    c-0.097,0-0.19,0.038-0.26,0.107l-2.991,2.991v-5.322c1.031-0.176,1.821-1.068,1.821-2.149c0-1.206-0.982-2.188-2.188-2.188    c-1.206,0-2.187,0.982-2.187,2.188c0,1.08,0.789,1.974,1.82,2.149v6.208v0.503l-3.398-4.249v-2.788    c0-0.022-0.009-0.044-0.014-0.066c0.65-0.857,0.593-2.081-0.188-2.862c0.094,0.093,0.187,0.187,0.227,0.226    c-0.025-0.024-0.087-0.087-0.227-0.227c-0.154-0.153-0.222-0.223-0.24-0.239c0.027,0.026,0.133,0.133,0.239,0.238    c-0.853-0.852-2.24-0.852-3.092,0.001c-0.853,0.854-0.853,2.241,0,3.095c0.693,0.693,1.736,0.812,2.562,0.379v2.372    c0,0.083,0.028,0.164,0.081,0.229l4.052,5.066v1.433c-0.56-0.027-1.114-0.086-1.651-0.197    c-4.259-0.505-13.816-2.749-16.736-12.301c-0.107-0.339-0.203-0.681-0.296-1.022l2.67-2.67h6.747c0.097,0,0.191-0.04,0.259-0.107    l0.616-0.615c0.79,0.545,1.883,0.47,2.586-0.233c0.792-0.792,0.792-2.081,0-2.873s-2.081-0.792-2.872,0    c-0.704,0.703-0.779,1.796-0.233,2.587l-0.508,0.508h-6.747c-0.097,0-0.191,0.04-0.259,0.107l-2.468,2.469    c-1.584-6.604-0.751-13.953,2.565-22.147c0.026,0.006,0.05,0.016,0.078,0.016h2.282l5.057,5.057    c-0.546,0.791-0.47,1.884,0.233,2.587c0.791,0.791,2.08,0.791,2.872,0c0.792-0.792,0.792-2.082,0-2.873    c-0.703-0.703-1.797-0.778-2.587-0.233l-5.164-5.165c-0.068-0.068-0.163-0.107-0.259-0.107h-2.21    c3.204-7.634,8.532-15.995,16.026-25.16v3.643l-4.025,4.025c-0.068,0.068-0.107,0.163-0.107,0.259V31.6    c-0.945,0.174-1.665,1-1.665,1.994c0,1.12,0.912,2.032,2.031,2.032c1.121,0,2.031-0.912,2.031-2.032    c0-0.994-0.718-1.82-1.664-1.994V19.757l3.398-3.399v5.159v15.17c-0.945,0.173-1.665,1-1.665,1.995    c0,1.12,0.912,2.031,2.032,2.031s2.031-0.912,2.031-2.031c0-0.995-0.72-1.821-1.665-1.995V22.402l3.335,3.335v7.578    c-0.945,0.174-1.664,1-1.664,1.994c0,1.12,0.911,2.031,2.031,2.031s2.031-0.912,2.031-2.031c0-0.995-0.72-1.821-1.665-1.994    v-7.729c0-0.097-0.039-0.19-0.107-0.259l-3.961-3.961v-5.891c0-0.001,0-0.002,0-0.003v-3.794    c5.302,6.483,9.519,12.563,12.668,18.272c-0.029,0.017-0.065,0.013-0.091,0.038l-2.015,2.015    c-0.067,0.068-0.106,0.163-0.106,0.259v8.3l-2.038,2.037c-0.79-0.546-1.883-0.471-2.586,0.231    c0.197-0.198,0.393-0.394-0.002,0.001c-0.001,0-0.001,0.001-0.002,0.002c-0.789,0.792-0.788,2.079,0.002,2.871    c0.792,0.792,2.081,0.792,2.873,0c0.703-0.704,0.778-1.796,0.233-2.587l2.145-2.145c0.068-0.069,0.107-0.163,0.107-0.259v-8.301    l1.828-1.827C68.661,41.08,70.686,50.308,69.163,58.463z M59.067,54.337c0,0.127-0.02,0.249-0.049,0.367    c-0.165,0.68-0.774,1.188-1.506,1.188c-0.857,0-1.555-0.697-1.555-1.555c0-0.856,0.697-1.555,1.555-1.555    c0.731,0,1.341,0.509,1.507,1.188C59.048,54.089,59.067,54.21,59.067,54.337z M55.844,67.322c0-0.127,0.02-0.248,0.049-0.366    c0.166-0.68,0.776-1.188,1.506-1.188c0.858,0,1.556,0.698,1.556,1.555c0,0.858-0.697,1.555-1.556,1.555    c-0.729,0-1.34-0.507-1.506-1.188C55.863,67.571,55.844,67.449,55.844,67.322z M42.91,64.208c-0.654-0.653-0.654-1.716,0-2.368    c0.653-0.652,1.714-0.652,2.367,0c0.563,0.563,0.638,1.431,0.229,2.078c-0.065,0.103-0.139,0.2-0.229,0.29    c-0.089,0.089-0.188,0.164-0.29,0.229C44.34,64.846,43.474,64.771,42.91,64.208z M40.9,54.369c0.605-0.606,1.592-0.606,2.198,0    c0.607,0.605,0.607,1.592,0,2.198c-0.516,0.517-1.307,0.589-1.905,0.226c-0.104-0.063-0.203-0.136-0.293-0.226    s-0.162-0.189-0.226-0.294C40.311,55.676,40.383,54.885,40.9,54.369z M41.193,42.454c0.598-0.364,1.389-0.292,1.905,0.225    c0.607,0.606,0.607,1.592,0,2.198c-0.605,0.607-1.592,0.607-2.198,0c-0.517-0.516-0.589-1.307-0.225-1.905    c0.063-0.104,0.135-0.204,0.225-0.293C40.99,42.589,41.089,42.517,41.193,42.454z M45.475,32.04c0.858,0,1.555,0.698,1.555,1.555    c0,0.858-0.697,1.555-1.555,1.555c-0.856,0-1.553-0.697-1.553-1.555C43.921,32.737,44.618,32.04,45.475,32.04z M53.676,33.754    c0.857,0,1.555,0.697,1.555,1.555c0,0.857-0.697,1.555-1.555,1.555c-0.856,0-1.555-0.698-1.555-1.555    C52.121,34.451,52.819,33.754,53.676,33.754z M58.34,45.367c-0.606,0.606-1.592,0.606-2.198,0c-0.606-0.606-0.606-1.593,0-2.199    c0.517-0.517,1.308-0.589,1.905-0.225c0.104,0.063,0.203,0.136,0.293,0.225c0.09,0.09,0.162,0.189,0.226,0.293    C58.93,44.06,58.857,44.851,58.34,45.367z"/><path d="M43.435,42.342C44.227,43.133,42.643,41.55,43.435,42.342L43.435,42.342z"/><path d="M40.563,54.031C41.354,53.239,39.771,54.823,40.563,54.031L40.563,54.031z"/></g><path d="M66.147,49.979c-0.623,0-1.119,0.453-1.237,1.042H52.714v-0.497h-1.327v-0.961h1.327v-0.249h3.9   c0.064,0,0.128-0.025,0.174-0.071l3.617-3.617h3.829c0.117,0.589,0.613,1.042,1.238,1.042c0.71,0,1.286-0.576,1.286-1.287   c0-0.712-0.576-1.288-1.286-1.288c-0.625,0-1.121,0.453-1.238,1.042h-3.932c-0.064,0-0.127,0.026-0.172,0.072l-3.617,3.617h-3.8   v-0.544h-1.327V47.32h1.327v-1.28h-1.327V45.08h1.327v-0.401c0.062,0,0.125-0.024,0.172-0.071l3.856-3.855   c0.046-0.045,0.071-0.108,0.071-0.172V30.356l0.732-0.732c0.501,0.333,1.173,0.304,1.613-0.138c0.503-0.503,0.503-1.318,0-1.821   c-0.502-0.503-1.317-0.503-1.82,0c-0.441,0.441-0.472,1.112-0.139,1.612l-0.805,0.805c-0.046,0.046-0.071,0.109-0.071,0.173v10.222   l-3.61,3.611v-0.29h-1.327v-0.81h-3.559v0.81H46.5v0.29l-3.918-3.919v-7.466c0-0.064-0.027-0.127-0.073-0.172l-1.582-1.582   c0.335-0.5,0.305-1.171-0.138-1.613c-0.502-0.502-1.317-0.502-1.819,0c-0.503,0.503-0.503,1.318-0.001,1.821   c0.442,0.442,1.114,0.472,1.614,0.138l1.509,1.511v7.465c0,0.064,0.027,0.128,0.073,0.173l4.164,4.164   c0.047,0.047,0.11,0.071,0.172,0.071v0.401h1.328v0.961H46.5v1.28h1.328v0.961H46.5v0.324h-3.624l-5.869-5.87   c-0.045-0.045-0.109-0.072-0.173-0.072H35.61c-0.118-0.589-0.615-1.042-1.238-1.042c-0.711,0-1.288,0.577-1.288,1.287   c0,0.711,0.576,1.288,1.288,1.288c0.624,0,1.12-0.453,1.238-1.042h1.124l5.869,5.869c0.046,0.045,0.109,0.072,0.173,0.072H46.5   v0.469h1.328v0.961H46.5v0.497H34.313c-0.118-0.589-0.614-1.042-1.238-1.042c-0.71,0-1.288,0.577-1.288,1.287   c0,0.711,0.577,1.287,1.288,1.287c0.625,0,1.12-0.453,1.238-1.042H46.5v0.294h1.328v0.961H46.5v1.28h1.328v0.961H46.5v0.253   c-0.062,0-0.125,0.023-0.172,0.07l-5.776,5.775h-3.781c-0.118-0.589-0.615-1.042-1.238-1.042c-0.712,0-1.288,0.576-1.288,1.287   s0.576,1.287,1.288,1.287c0.624,0,1.121-0.453,1.238-1.043h3.882c0.063,0,0.126-0.025,0.172-0.071l5.674-5.675v0.439h1.328v1.608   h3.559v-1.608h1.327v-0.439l3.076,3.077h4.97l1.443,1.442c-0.334,0.501-0.304,1.172,0.138,1.613c0.503,0.503,1.317,0.503,1.821,0   c0.502-0.503,0.502-1.317,0-1.821c-0.442-0.44-1.113-0.471-1.614-0.138l-1.586-1.586h-4.969l-3.107-3.106   c-0.047-0.047-0.109-0.071-0.172-0.071v-0.252h-1.327v-0.961h1.327v-1.28h-1.327v-0.961h1.327v-0.294H64.91   c0.118,0.589,0.614,1.042,1.237,1.042c0.711,0,1.288-0.576,1.288-1.287C67.436,50.555,66.858,49.979,66.147,49.979z"/></g></g>
			</g>
		</svg>
    